<svg width="50" height="50" viewBox="0 0 50 50" fill="none" xmlns="http://www.w3.org/2000/svg">
<g id="Group 1">
<rect id="Rectangle 1" width="50" height="50" rx="25" fill="white" fill-opacity="0.1"/>
<g id="C&#226;&#128;&#168;C">
<path d="M26.5741 25.1827C26.5741 23.9723 26.9792 22.9726 27.7894 22.1836C28.5995 21.3945 29.5988 21 30.787 21C31.983 21 32.9823 21.3945 33.7847 22.1836C34.5949 22.9726 35 23.9723 35 25.1827C35 25.9104 34.8264 26.5807 34.4792 27.1936C34.1397 27.8141 33.6767 28.2967 33.0903 28.6414C32.5039 28.9862 31.929 27.4732 32.2917 27.274C32.6543 27.0748 32.936 26.7914 33.1366 26.4237C33.3449 26.056 33.4491 25.6423 33.4491 25.1827C33.4491 24.4013 33.2022 23.7693 32.7083 23.2867C32.2145 22.8117 31.5741 22.5743 30.787 22.5743C30.0077 22.5743 29.3711 22.8117 28.8773 23.2867C28.3835 23.7693 28.1366 24.4013 28.1366 25.1827C28.1366 25.6423 28.2369 26.056 28.4375 26.4237C28.6458 26.7991 28.9275 27.0825 29.2824 27.274C29.6373 27.4655 29.0702 28.9862 28.4838 28.6414C27.8974 28.2967 27.4306 27.8179 27.0833 27.2051C26.7438 26.5922 26.5741 25.9181 26.5741 25.1827Z" fill="white"/>
<path d="M15 25.1827C15 23.9723 15.4051 22.9726 16.2153 22.1836C17.0255 21.3945 18.0247 21 19.213 21C20.409 21 21.4082 21.3945 22.2106 22.1836C23.0208 22.9726 23.4259 23.9723 23.4259 25.1827C23.4259 25.9104 23.2523 26.5807 22.9051 27.1936C22.5656 27.8141 22.1026 28.2967 21.5162 28.6414C20.9298 28.9862 20.3549 27.4732 20.7176 27.274C21.0802 27.0748 21.3619 26.7914 21.5625 26.4237C21.7708 26.056 21.875 25.6423 21.875 25.1827C21.875 24.4013 21.6281 23.7693 21.1343 23.2867C20.6404 22.8117 20 22.5743 19.213 22.5743C18.4336 22.5743 17.7971 22.8117 17.3032 23.2867C16.8094 23.7693 16.5625 24.4013 16.5625 25.1827C16.5625 25.6423 16.6628 26.056 16.8634 26.4237C17.0718 26.7991 17.3534 27.0825 17.7083 27.274C18.0633 27.4655 17.4961 28.9862 16.9097 28.6414C16.3233 28.2967 15.8565 27.8179 15.5093 27.2051C15.1698 26.5922 15 25.9181 15 25.1827Z" fill="white"/>
</g>
</g>
</svg>
