<svg width="24" height="24" viewBox="0 0 24 24" fill="none" xmlns="http://www.w3.org/2000/svg">
<g id="search">
<path id="Vector" d="M20.0002 19.0588L15.8311 14.8897C16.9141 13.5652 17.4466 11.8751 17.3184 10.1691C17.1902 8.46299 16.4112 6.87144 15.1424 5.72363C13.8737 4.57582 12.2124 3.95957 10.502 4.00233C8.79165 4.04509 7.16317 4.74361 5.95339 5.95339C4.74361 7.16317 4.04509 8.79165 4.00233 10.502C3.95957 12.2124 4.57582 13.8737 5.72363 15.1424C6.87144 16.4112 8.46299 17.1902 10.1691 17.3184C11.8751 17.4466 13.5652 16.9141 14.8897 15.8311L19.0588 20.0002L20.0002 19.0588ZM10.6793 16.0056C9.62591 16.0056 8.59614 15.6932 7.72025 15.1079C6.84435 14.5227 6.16168 13.6908 5.75855 12.7176C5.35542 11.7444 5.24994 10.6734 5.45545 9.64025C5.66097 8.60706 6.16824 7.65802 6.91313 6.91313C7.65802 6.16824 8.60706 5.66097 9.64025 5.45545C10.6734 5.24994 11.7444 5.35542 12.7176 5.75855C13.6908 6.16168 14.5227 6.84435 15.1079 7.72025C15.6932 8.59614 16.0056 9.62591 16.0056 10.6793C16.004 12.0915 15.4423 13.4453 14.4438 14.4438C13.4453 15.4423 12.0915 16.004 10.6793 16.0056Z" fill="white" fill-opacity="0.4"/>
</g>
</svg>
